<svg width="30" height="30" viewBox="0 0 30 30" fill="none" xmlns="http://www.w3.org/2000/svg">
<path d="M16.496 8.8542C16.496 9.68039 15.8263 10.3503 15 10.3503C14.1737 10.3503 13.504 9.68039 13.504 8.8542C13.504 8.02832 14.1737 7.3584 15 7.3584C15.8263 7.3584 16.496 8.02832 16.496 8.8542Z" fill="white"/>
<path d="M15 1.49977C22.4437 1.49977 28.4995 7.55587 28.4995 14.9993C28.4995 22.4428 22.4434 28.4996 15 28.4996C7.55655 28.4996 1.4997 22.4438 1.4997 15.0001C1.4997 7.55587 7.5561 1.49977 15 1.49977V1.49977ZM15 0C6.71584 0 0 6.71554 0 15C0 23.2842 6.71554 30 15 30C23.2842 30 30 23.2845 30 15C30 6.71584 23.2839 0 15 0V0Z" fill="white"/>
<path d="M13.9084 12.3718H16.0108V22.6414H13.9084V12.3718Z" fill="white"/>
</svg>
