<svg width="667" height="299" viewBox="0 0 667 299" fill="none" xmlns="http://www.w3.org/2000/svg">
<path d="M110.168 226.863L123.19 195.81H119.584L99.3493 216.846H53.6712L79.5154 83.6181L95.7431 77.4075L96.3442 74.6027H41.6507L41.0497 77.4075L54.8733 83.6181L29.0291 216.646L12.601 224.058L12 226.863H110.168Z" fill="black"/>
<path d="M272.365 229.067C300.213 229.067 322.251 215.043 335.073 188.197L333.87 226.863H338.078L352.102 154.139H288.393L287.591 157.945C310.43 159.748 325.857 166.76 325.857 181.385C325.857 201.42 304.019 221.654 277.374 221.654C250.528 221.654 236.304 201.42 236.304 170.767C236.304 117.676 264.552 80.4127 304.821 80.4127C335.674 80.4127 348.295 99.8459 342.085 134.705H345.891L354.506 90.2294C353.103 87.024 338.278 73 308.427 73C254.735 73 208.256 117.276 208.256 168.563C208.256 205.627 235.903 229.067 272.365 229.067Z" fill="black"/>
<path d="M412.934 226.863L413.535 224.058L399.911 216.646L412.733 151.334H479.047L466.425 216.646L449.997 224.058L449.396 226.863H504.09L504.691 224.058L491.067 216.646L516.911 83.6181L533.139 77.4075L533.74 74.6027H479.047L478.446 77.4075L492.269 83.6181L480.85 142.118H414.536L425.756 83.6181L441.983 77.4075L442.584 74.6027H387.891L387.29 77.4075L401.114 83.6181L375.269 216.646L358.841 224.058L358.24 226.863H412.934Z" fill="black"/>
<path d="M605.839 226.863L606.44 224.058L592.816 216.646L618.861 83.2175H652.118L662.335 105.656H666.743L665.741 74.6027H550.544L537.522 105.656H541.729L560.761 83.2175H594.018L568.174 216.646L551.546 224.058L550.945 226.863H605.839Z" fill="black"/>
<path d="M211.137 36.6084C209.625 36.1767 207.897 36.8256 207.407 38.1593L164.639 129.282L144.71 100.664C143.865 99.4401 142.124 99.1029 140.626 99.6573C139.238 100.403 138.527 101.845 139.208 103.022L153.851 133.9L45.1102 111.037C43.5451 110.75 41.9895 111.46 41.4994 112.793C41.0093 114.127 41.7444 115.651 43.2563 116.082L146.55 153.771L114.097 171.36C112.709 172.106 112.326 173.641 113.007 174.818C113.853 176.042 115.487 176.669 116.986 176.114L152.163 163.234L126.202 259.156C125.876 260.536 126.679 261.908 128.191 262.34C129.703 262.771 131.431 262.123 131.921 260.789L174.689 169.666L194.454 198.237C195.299 199.461 197.04 199.798 198.374 199.197C199.873 198.643 200.473 197.009 199.792 195.832L185.202 164.809L293.943 187.672C295.508 187.959 297.064 187.25 297.554 185.916C298.044 184.583 297.309 183.059 295.797 182.627L192.504 144.939L224.903 127.495C226.291 126.749 226.838 125.26 225.993 124.036C225.311 122.859 223.513 122.186 222.178 122.787L187.165 135.714L213.127 39.7926C213.449 38.4224 212.649 37.0401 211.137 36.6084ZM179.821 139.523C179.605 140.604 180.012 141.542 180.856 142.275C181.754 142.862 182.983 143.042 184.043 142.693L188.768 140.936L184.384 143.282C183.442 143.836 182.887 144.819 182.9 145.805C182.913 146.792 183.704 147.669 184.819 148.158L257.685 174.701L181.005 158.538C179.833 158.203 178.716 158.707 177.885 159.452C177.611 159.705 177.505 159.994 177.341 160.439C177.125 161.028 177.069 161.675 177.409 162.263L179.4 166.43L176.742 162.564C176.115 161.734 174.999 161.244 173.881 161.256C172.71 161.413 171.769 161.966 171.213 162.95L141.093 227.23L159.447 159.59C159.662 158.509 159.256 157.57 158.412 156.838C157.567 156.106 156.285 156.071 155.225 156.419L150.499 158.177L154.884 155.831C155.825 155.277 156.545 154.34 156.368 153.307C156.355 152.321 155.563 151.444 154.448 150.954L81.583 124.411L158.262 140.575C159.434 140.909 160.552 140.406 161.382 139.661C162.213 138.915 162.253 137.785 161.859 136.849L159.868 132.682L162.526 136.549C163.153 137.379 164.268 137.869 165.386 137.857C166.504 137.845 167.499 137.146 168.055 136.163L198.229 71.7374L179.821 139.523Z" fill="#070707"/>
</svg>
