<svg width="297" height="298" viewBox="0 0 297 298" fill="none" xmlns="http://www.w3.org/2000/svg">
<path d="M292.437 87.9531L164.748 127.817L179.506 84.1621C180.019 82.6366 179.283 80.927 177.751 80.2696C176.215 79.6133 174.472 80.2648 173.724 81.69L152.361 122.521L92.9972 2.651C92.222 1.20241 90.4853 0.528053 88.9695 1.13591C87.4537 1.74377 86.6631 3.42821 87.1457 4.99753L127.05 132.671L83.3953 117.913C81.8533 117.358 80.1602 118.136 79.5027 119.668C78.8464 121.203 79.498 122.947 80.9232 123.695L121.754 145.058L1.90046 204.462C0.391311 205.214 -0.280083 206.949 0.327744 208.465C0.935572 209.981 2.62005 210.772 4.18938 210.289L131.863 170.384L117.105 214.039C116.591 215.565 117.328 217.274 118.86 217.932C120.395 218.588 122.139 217.937 122.887 216.511L144.25 175.68L203.613 295.55C204.347 297.016 206.084 297.69 207.6 297.082C209.116 296.474 209.906 294.79 209.424 293.22L169.519 165.547L213.174 180.305C214.7 180.819 216.409 180.082 217.067 178.55C217.723 177.015 217.071 175.271 215.646 174.523L174.815 153.16L294.685 93.7965C296.15 93.0624 296.825 91.3257 296.217 89.81C295.606 88.2954 294.004 87.4716 292.437 87.9532L292.437 87.9531ZM166.608 150.241C165.547 150.766 164.85 151.826 164.849 153.047C164.834 154.226 165.474 155.337 166.528 155.893L177.418 161.595L165.772 157.662C164.641 157.283 163.437 157.572 162.554 158.414C161.712 159.239 161.384 160.496 161.741 161.624L191.558 257.064L147.171 167.467C146.647 166.406 145.587 165.709 144.365 165.708C143.919 165.692 143.523 165.8 143.144 165.952C142.471 166.222 141.897 166.745 141.537 167.429L135.834 178.318L139.767 166.672C140.146 165.542 139.841 164.296 139.016 163.454C138.19 162.612 136.951 162.328 135.805 162.642L40.3647 192.458L129.962 148.072C131.024 147.547 131.72 146.487 131.722 145.265C131.72 144.045 131.097 142.976 130.042 142.42L119.152 136.718L130.798 140.651C131.929 141.029 133.133 140.741 134.016 139.899C134.858 139.074 135.186 137.817 134.829 136.688L105.013 41.2483L149.399 130.846C149.923 131.907 150.984 132.604 152.205 132.605C153.384 132.62 154.495 131.98 155.05 130.925L160.752 120.036L156.82 131.682C156.441 132.812 156.746 134.057 157.571 134.899C158.396 135.742 159.636 136.026 160.782 135.712L256.222 105.896L166.608 150.241Z" fill="black"/>
</svg>
