<svg width="351" height="351" viewBox="0 0 351 351" fill="none" xmlns="http://www.w3.org/2000/svg">
<path d="M350.27 216.463C350.754 214.396 349.582 212.178 347.513 211.694L205.146 166.251L246.147 136.108C247.902 134.829 248.217 132.468 247.213 130.543C245.932 128.789 243.676 128.025 241.974 129.08L196.971 152.471L219.405 4.81553C219.664 2.69572 218.42 0.714116 216.351 0.229938C214.282 -0.254249 212.063 0.916626 211.579 2.98389L166.151 145.257L135.98 104.27C134.699 102.517 132.337 102.201 130.635 103.256C128.881 104.536 128.116 106.791 129.12 108.716L152.485 153.924L4.73836 131.461C2.61726 131.202 0.634877 132.445 0.151009 134.512C-0.332859 136.579 0.839302 138.798 2.90789 139.282L145.275 184.725L104.326 214.643C102.572 215.922 102.257 218.283 103.313 219.984C104.317 221.909 106.851 222.502 108.552 221.447L153.78 198.109L131.346 345.764C131.087 347.883 132.331 349.865 134.4 350.349C136.468 350.833 138.688 349.663 139.171 347.595L184.6 205.323L214.547 246.256C215.828 248.01 218.137 248.55 219.891 247.271C221.593 246.215 222.41 243.736 221.354 242.035L197.937 197.051L345.683 219.514C347.788 219.77 349.786 218.531 350.27 216.463ZM191.368 187.755C189.712 187.604 188.34 188.263 187.328 189.48C186.54 190.749 186.406 192.408 187.05 193.776L190.23 199.845L186.199 194.304C185.258 193.12 183.711 192.504 182.223 192.646C180.735 192.788 179.499 193.952 178.883 195.499L146.902 295.855L162.784 191.73C163.159 190.128 162.274 188.704 161.057 187.692C160.644 187.359 160.195 187.253 159.505 187.092C158.591 186.878 157.609 186.885 156.758 187.412L150.687 190.589L156.23 186.562C157.414 185.622 158.029 184.076 157.887 182.589C157.52 181.049 156.579 179.866 155.032 179.25L54.6083 147.259L158.798 163.161C160.454 163.312 161.826 162.653 162.838 161.436C163.85 160.219 163.76 158.508 163.116 157.14L159.936 151.071L163.967 156.612C164.908 157.796 166.403 158.636 167.943 158.27C169.431 158.128 170.668 156.963 171.283 155.417L203.264 55.0603L187.383 159.186C187.007 160.788 187.892 162.212 189.11 163.224C190.327 164.236 192.04 164.146 193.408 163.503L199.48 160.327L193.936 164.354C192.752 165.294 192.137 166.84 192.279 168.327C192.422 169.814 193.587 171.05 195.134 171.666L295.784 203.71L191.368 187.755Z" fill="#070707"/>
</svg>
