<svg width="297" height="297" viewBox="0 0 297 297" fill="none" xmlns="http://www.w3.org/2000/svg">
<path d="M292.351 87.1734L164.662 127.037L179.42 83.3824C179.933 81.8568 179.197 80.1472 177.665 79.4898C176.13 78.8335 174.386 79.485 173.638 80.9102L152.275 121.741L92.9113 1.87121C92.136 0.422626 90.3994 -0.251732 88.8836 0.356126C87.3678 0.963984 86.5771 2.64842 87.0598 4.21775L126.964 131.891L83.3094 117.133C81.7674 116.578 80.0742 117.356 79.4168 118.888C78.7605 120.423 79.412 122.167 80.8373 122.915L121.668 144.278L1.81452 203.682C0.305373 204.434 -0.366021 206.17 0.241807 207.685C0.849635 209.201 2.53411 209.992 4.10344 209.509L131.777 169.605L117.019 213.26C116.505 214.785 117.242 216.495 118.774 217.152C120.309 217.808 122.053 217.157 122.801 215.732L144.164 174.9L203.527 294.771C204.261 296.236 205.998 296.91 207.514 296.302C209.03 295.694 209.82 294.01 209.338 292.441L169.433 164.767L213.088 179.525C214.614 180.039 216.323 179.302 216.981 177.77C217.637 176.235 216.985 174.491 215.56 173.743L174.729 152.38L294.599 93.0167C296.064 92.2826 296.739 90.5459 296.131 89.0302C295.52 87.5156 293.918 86.6919 292.351 87.1734L292.351 87.1734ZM166.522 149.462C165.461 149.986 164.764 151.046 164.763 152.268C164.748 153.447 165.388 154.557 166.443 155.113L177.332 160.815L165.686 156.882C164.556 156.504 163.352 156.792 162.468 157.634C161.626 158.459 161.298 159.716 161.656 160.845L191.472 256.285L147.086 166.687C146.561 165.626 145.501 164.929 144.279 164.928C143.833 164.912 143.437 165.02 143.058 165.172C142.385 165.442 141.811 165.966 141.451 166.649L135.748 177.539L139.681 165.892C140.06 164.762 139.755 163.517 138.93 162.675C138.104 161.833 136.865 161.549 135.719 161.862L40.2788 191.678L129.876 147.292C130.938 146.767 131.634 145.707 131.636 144.486C131.634 143.266 131.011 142.196 129.956 141.64L119.066 135.938L130.712 139.871C131.843 140.25 133.047 139.961 133.93 139.119C134.772 138.294 135.1 137.037 134.743 135.909L104.927 40.4686L149.313 130.066C149.837 131.127 150.898 131.824 152.119 131.825C153.298 131.84 154.409 131.2 154.964 130.146L160.667 119.256L156.734 130.902C156.355 132.033 156.66 133.278 157.485 134.12C158.311 134.962 159.55 135.246 160.696 134.933L256.136 105.116L166.522 149.462Z" fill="white"/>
</svg>
