<svg width="28" height="12" viewBox="0 0 28 12" fill="none" xmlns="http://www.w3.org/2000/svg">
<path d="M3.79841 12H0.425831V11.7947L1.63519 11.3684L5.07591 6.31579L1.22639 0.694737L0 0.205263V0H4.49678V0.205263L3.30445 0.61579L6.23417 4.84737L9.04466 0.647368L7.59683 0.205263V0H10.9183V0.205263L9.64082 0.726316L6.54077 5.30526L10.748 11.3684L11.9233 11.7947V12H7.3243V11.7947L8.53366 11.3684L5.39954 6.78947L2.31652 11.3684L3.79841 11.7947V12Z" fill="white"/>
<path d="M15.2094 12H11.8368V11.7947L13.0461 11.3684L16.4869 6.31579L12.6373 0.694737L11.4109 0.205263V0H15.9077V0.205263L14.7154 0.61579L17.6451 4.84737L20.4556 0.647368L19.0078 0.205263V0H22.3293V0.205263L21.0518 0.726316L17.9517 5.30526L22.1589 11.3684L23.3342 11.7947V12H18.7352V11.7947L19.9446 11.3684L16.8105 6.78947L13.7275 11.3684L15.2094 11.7947V12Z" fill="white"/>
<path d="M28 12H23.6054V11.7947L24.8829 11.2421V0.694737L23.6054 0.205263V0H28V0.205263L26.7225 0.694737V11.2421L28 11.7947V12Z" fill="white"/>
</svg>
